<?xml version="1.0" encoding="UTF-8" standalone="no"?>
<svg
   id="_레이어_2"
   data-name="레이어 2"
   viewBox="0 0 1047.79 7000.0001"
   version="1.1"
   sodipodi:docname="route.svg"
   width="1047.79"
   height="7000"
   inkscape:version="1.3.2 (091e20e, 2023-11-25, custom)"
   xmlns:inkscape="http://www.inkscape.org/namespaces/inkscape"
   xmlns:sodipodi="http://sodipodi.sourceforge.net/DTD/sodipodi-0.dtd"
   xmlns="http://www.w3.org/2000/svg"
   xmlns:svg="http://www.w3.org/2000/svg">
  <sodipodi:namedview
     id="namedview10"
     pagecolor="#505050"
     bordercolor="#eeeeee"
     borderopacity="1"
     inkscape:showpageshadow="0"
     inkscape:pageopacity="0"
     inkscape:pagecheckerboard="0"
     inkscape:deskcolor="#505050"
     inkscape:zoom="0.26709247"
     inkscape:cx="-836.78883"
     inkscape:cy="5550.5121"
     inkscape:window-width="1920"
     inkscape:window-height="1009"
     inkscape:window-x="-8"
     inkscape:window-y="436"
     inkscape:window-maximized="1"
     inkscape:current-layer="_레이어_2-2" />
  <defs
     id="defs1">
    <style
       id="style1">
      .cls-1 {
        fill: none;
        stroke: #fff;
        stroke-miterlimit: 10;
        stroke-width: 3px;
      }

      .cls-2 {
        fill: #fff;
      }
    </style>
  </defs>
  <g
     id="_레이어_2-2"
     data-name="레이어 2">
    <path
       class="cls-1"
       d="M 538.86609,6996.6616 C 536.66216,6788.2478 557.43826,6422.352 554.55591,6149.8291 552.53436,5958.6943 254.57383,5941.3348 114.98514,5837.0227 -110.41156,5668.5878 20.449542,5433.9675 444.86936,5169.5547 610.23264,5048.2471 831.99985,4939.663 993.3144,4749.7781 1117.8908,4603.1381 968.91897,4448.9448 582.48164,4106.4299 432.06575,3973.1103 155.05311,3803.2757 55.745961,3584.5701 -154.33803,3183.46 432.24446,3015.1727 425.81,3015.85 870.64,2913.2 983.49,2764.92 983.49,2764.92 1267.42,2445.55 496.53,2118.58 496.53,2118.58 237.62,2006.42 182.49,1822.03 182.49,1822.03 -5.24,1295.45 395.39,1206.1 502.03,1255.07 c 65,29.84 105.64,109.85 90,179.91 C 556.97,1592.01 357.37,1586.3 357.37,1586.3 70.32,1586.3 16.7,1392.4 16.7,1392.4 -68.45,1107.25 231.91,858.22 231.91,858.22 541.72,612.52 523.89,221.69 523.89,221.69 V 0"
       id="path1"
       sodipodi:nodetypes="csscsscccccccccccc" />
    <g
       id="g10"
       transform="translate(80.496465,-26.208152)">
      <path
         class="cls-2"
         d="m 239.51,1492.31 -11.33,2.83 -4.93,-19.74 -16.79,4.2 4.93,19.74 -11.4,2.85 -11.82,-47.28 11.4,-2.85 4.69,18.77 16.79,-4.2 -4.69,-18.77 11.33,-2.83 z"
         id="path2" />
      <path
         class="cls-2"
         d="m 271.02,1463.11 -17.92,4.48 2.82,11.3 21.17,-5.29 2.19,8.77 -32.57,8.14 -11.82,-47.28 32.63,-8.16 2.2,8.8 -21.24,5.31 2.49,9.97 17.92,-4.48 2.11,8.44 z"
         id="path3" />
      <path
         class="cls-2"
         d="m 293.14,1469.59 19.84,-4.96 2.19,8.77 -31.24,7.81 -11.82,-47.28 11.4,-2.85 z"
         id="path4" />
      <path
         class="cls-2"
         d="m 329.18,1460.58 19.84,-4.96 2.19,8.77 -31.24,7.81 -11.82,-47.28 11.4,-2.85 z"
         id="path5" />
      <path
         class="cls-2"
         d="m 388.31,1431.03 c 1.15,4.61 1.32,8.91 0.49,12.88 -0.82,3.98 -2.57,7.32 -5.24,10.02 -2.67,2.7 -6.02,4.56 -10.05,5.56 -4.03,1 -7.83,0.97 -11.41,-0.1 -3.58,-1.07 -6.67,-3.11 -9.27,-6.12 -2.6,-3.01 -4.51,-6.73 -5.71,-11.17 l -0.67,-2.66 c -1.16,-4.63 -1.33,-8.93 -0.52,-12.89 0.81,-3.96 2.57,-7.31 5.26,-10.02 2.69,-2.72 6.06,-4.58 10.11,-5.6 4.05,-1.02 7.81,-0.94 11.43,0.18 3.61,1.12 6.73,3.22 9.36,6.3 2.62,3.08 4.51,6.89 5.67,11.43 l 0.54,2.18 z m -12.09,0.92 c -1.17,-4.7 -2.85,-8.07 -5.03,-10.11 -2.18,-2.04 -4.73,-2.7 -7.65,-1.97 -5.71,1.43 -7.66,6.47 -5.85,15.12 l 0.84,3.48 c 1.16,4.63 2.82,8 4.98,10.11 2.16,2.11 4.75,2.78 7.78,2.02 3.03,-0.76 4.79,-2.5 5.74,-5.33 0.95,-2.84 0.86,-6.55 -0.27,-11.15 l -0.54,-2.18 z"
         id="path6" />
    </g>
  </g>
</svg>
